<?xml version="1.0" encoding="utf-8"?>
<!-- Generator: Adobe Illustrator 25.1.0, SVG Export Plug-In . SVG Version: 6.00 Build 0)  -->
<svg version="1.1" id="Capa_1" xmlns="http://www.w3.org/2000/svg" xmlns:xlink="http://www.w3.org/1999/xlink" x="0px" y="0px"
	 viewBox="0 0 752.8 752.8" style="enable-background:new 0 0 752.8 752.8;" xml:space="preserve">
<style type="text/css">
	.st0{fill:#1BBC9B;}
	.st1{fill:#FFFFFF;stroke:#FFFFFF;stroke-width:2;stroke-miterlimit:10;}
</style>
<circle class="st0" cx="376.2" cy="376.8" r="337"/>
<g>
	<path class="st1" d="M392.5,559.9c0.1,1.4,0.1,2.8,0.2,4.3c-0.8,0.2-0.7,0.7-0.6,1.1c0,0.1,0.3,0.2,0.5,0.2c0.1,0,0.2-0.1,0.2-0.1
		c0.1-0.3,0.2-0.5,0.2-0.8c0.1-3.7,0.4-7.4,0.4-11.1c0.1-32.9,0.2-65.7-0.2-98.6c-0.1-4.4-0.1-8.9-0.3-13.3c-0.1-2.4-0.2-4.7,0-7.1
		c0.1-0.8,0-1.7,0-2.5c0-0.1-0.2-0.3-0.4-0.3s-0.4,0-0.5,0.1c-0.2,0.5-0.5,1.1-0.5,1.6c-0.3,2-0.5,3.9-0.4,5.9
		c0.1,4.3,0.2,8.5,0.2,12.8c0.1,25.2,0.1,50.4,0.2,75.6c0,0.8-0.1,1.7-0.1,2.5c-0.4,0-0.8,0-1.2,0c-0.6,0-1.2-0.1-1.9-0.1
		c-0.4-1.5-0.2-3-0.2-4.5c-0.1-15.3-0.2-30.5-0.2-45.8c0-16.8,0-33.5,0-50.3c0-1.3-0.1-2.6-0.4-3.9c-0.5-1.8-1.1-2.3-3-2.3
		c-20.5,0-40.9,0-61.4-0.1c-20.9,0-41.9,0-62.8,0c-1,0-2.1-0.1-3.1-0.1c-0.7,0-1.3,0.1-2,0.1c-14.2,0-28.4,0-42.6,0
		c-0.7,0-1.3-0.1-2-0.1c-2.5,0-5,0-7.4,0c-2.2,0-4.4,0.1-6.5,0.1c-0.9,0-1.9-0.1-2.9,0.5c-0.3-1.4-0.2-2.8,0-4.2
		c1.5,0.4,3,0.3,4.5,0.3c59.1,0,118.2,0,177.3,0c3.1,0,6.3,0.1,9.4,0.1c0.7,0,1.3-0.1,2-0.1c0.5-1,0.5-2,0.5-3
		c0-21.5,0-43.1-0.5-64.6c0-1.1,0.1-2.3,0.1-3.4c0-0.2-0.1-0.4-0.1-0.6c-0.3-1.7-0.3-1.7-1.9-1.8c-3.7-0.4-7.4-0.4-11.1-0.4
		c-39.8,0-79.6,0.1-119.4,0.1c-20,0-40,0-60,0.1c-1,0-2.1,0.1-3.1,0.2c-0.5,0.1-0.7,0.4-0.7,1c0.1,8,0.2,15.9,0.3,23.9
		c0,0.9,0,1.9,0.2,2.8c0.3,1.1,0.2,2.2,0.2,3.4c-0.2,7.7-0.3,15.3,0.1,23c0,0.7-0.1,1.4,0.3,1.9c0.6,0.8,0.5,1.6,0.5,2.4
		c0.3,7.3-0.4,14.6,0.2,21.9c0,31,0,62,0,92.9c0,11.1,0,22.2,0,33.3c0,1-0.2,2.1,0.3,3.1c0.1,0.3,0.3,0.8,0.7,0.6
		c0.2-0.1,0.5-0.4,0.5-0.6c0.1-1.2,0.2-2.5,0.2-3.7c0-41.1,0-82.2,0-123.4c0-1.1,0.1-2.3,0.1-3.4c0.2-0.7,0.7-0.5,1.1-0.5
		c3.7,0,7.4,0,11.1,0c15.6,0.1,31.3,0.3,46.9,0.1c30.3-0.3,60.7-0.1,91-0.3c12-0.1,24.1,0,36.1,0c1.3,0,2.7,0,4,0.1
		c0.4,0,0.7,0.1,1,0.5c0.1,0.2,0.2,0.4,0.4,0.6c0,0.3,0.1,0.5,0.4,0.7c0,0.9,0.1,1.9,0.1,2.8c0,24.1,0,48.2,0,72.3
		c0,8.7-0.1,17.4-0.1,26.1c0,0.6-0.1,1.1-0.1,1.7c0,0.3,0.1,0.6,0.1,0.8c0,8,0.1,15.9,0.1,23.9c0,0.8-0.1,1.5-0.1,2.3
		c0,0.4-0.3,0.7-0.7,0.7c-0.7,0-1.3,0.1-2,0.1c-7.7,0-15.4,0-23,0c-58,0-116,0.1-174,0.1c-1.1,0-2.2,0-3.4,0
		c-0.1-0.5-0.1-0.8-0.1-1.2c0-7.6-0.1-15.2-0.1-22.7c0-44.2,0-88.3,0-132.5c0-8.1-0.1-16.3-0.3-24.4c-0.1-6.3-0.2-12.7-0.7-19
		c-0.4-4.8-0.3-9.7,0-14.5c0.1-1.9,0.1-3.8,0.2-5.7c0.1-2.5,0.2-4.9,0.3-7.4c0-0.3-0.2-0.5-0.5-0.5c-0.2,0-0.4,0.2-0.4,0.3
		c-0.5,1.2-0.6,2.6-0.7,3.9c-0.1,2.6-0.2,5.3-0.3,7.9c-0.4,6.2-0.5,12.5-0.3,18.7c0.2,3.9,0.4,7.8,0.4,11.6
		c0.2,17.1,0.3,34.3,0.4,51.4c0.1,22.8,0.1,45.6,0.2,68.5c0,8.4,0,16.9,0.1,25.3c0,9.8,0,19.5,0.1,29.3c0,3.6,0,7.2,0,10.8
		c0,0.5-0.1,1,0.4,1.3c1.1,0.6,2,1.6,3.5,1.5c1.7-0.1,3.4,0,5.1,0.1c1.3,0.1,2.9-0.6,3.8,0.5c0.8,1,0.4,2.5,0.4,3.9
		c0,8.7-0.3,17.4,0,26.1c0,0.5,0,0.9-0.2,1.4c-0.4,1-0.4,1.1,0.7,2c3.1,0,6.2,0,9.4,0c3.3,0,6.6,0,9.9,0c0.2-0.3,0.6-0.6,0.6-0.9
		c0.1-1,0.6-1.8,1.1-2.5c3.3-4.5,5.9-9.4,8-14.6c1.3-3.1,2.4-6.3,3.7-9.4c0.5-1.8,1.2-3.6,1.9-5.3c0.3-0.6,0.7-0.9,1.3-0.9
		c0.9,0,1.7,0,2.6,0c39,0,78.1,0,117.1,0c11.3,0,22.5,0,33.8,0c0.9,0,1.9,0.1,2.8,0.1c0.4-0.3,0.9-0.4,1.2-0.8
		c0.9-1.1,2-0.8,3.1-0.7C392.2,559.1,392.5,559.5,392.5,559.9z M193.4,418.7c0-1.6,0-3,0-4.4c0-2.6,0.1-5.1,0.2-7.7
		c0-1,0.3-1.3,1.2-1.1c3.8,0.6,7.6,0.6,11.3,0.8c5.7,0.2,11.4,0.3,17.1,0.4c2.7,0,4.8-1.8,5.4-4.5c0.4-1.8,0.6-3.5,0.6-5.4
		c0.2-6.9,0.4-13.8,0.2-20.7c0-1.8-0.1-3.6-0.1-5.4c-0.3-1-0.5-2-0.8-3c-0.6-0.5-1.2-0.7-2-0.7c-0.6,0-1.2-0.1-1.9-0.1
		c-0.9-0.6-1.9-0.7-3-0.8c-5.1-0.7-10.2-0.9-15.3-1c-2.9,0-5.9-0.1-8.8,0.4c-1.1,0.2-2.3,0.3-3.1,1.2c-0.5,0.2-1.1,0.3-1.5,0.5
		c-0.2,0-0.1-0.4-0.1-0.7c0-2.9,0-5.9,0-8.8c0-1.3,0-1.4,1.5-1.4c1.4,0,2.8,0,4.3,0c51.3,0,102.6,0,154,0c8.9,0,17.8,0,26.7,0.1
		c1.1,0,2.3,0,3.4-0.3c0.1-0.5,0.6-1,0.3-1.6c-0.3-0.6-0.8-0.8-1.3-0.9c-0.4-0.1-0.7-0.2-1.1-0.2c-3.3,0.1-6.5,0.1-9.8,0.1
		c-2.4,0-4.8-0.1-7.3-0.1c-0.2,0-0.5,0-0.7,0c-1,0.4-2.1,0.2-3.1,0.2c-39.9,0-79.8,0.1-119.7,0.1c-14.8,0-29.6,0-44.3,0
		c-1,0-2.2,0.6-3-0.3c-0.6-0.7-0.2-1.8-0.2-2.8c-0.1-3.2-0.2-2.9,2.9-2.8c44.3,0,88.7,0.1,133,0.1c14.6,0,29.2,0,43.8,0
		c3.9,0,7.8-0.1,11.7-0.2c0.4,0,1-0.2,1.1,0.5c0,1.5,0.2,3,0.1,4.4c-0.1,1.9-0.2,3.9-0.4,5.8c0.3,0.7,0.2,1.5,0.2,2.2
		c-0.1,13.8-0.2,27.7-0.3,41.5c0,0.4-0.1,0.7-0.1,1.1c0,4.7,0,9.5,0,14.2c-0.2,0.2-0.3,0.4-0.5,0.5c-0.6,0.1-1.1,0.2-1.7,0.2
		c-4.4,0-8.8,0-13.2,0c-0.4,0-0.7-0.1-1.1-0.1c-0.6,0.1-1.1,0.2-1.7,0.2c-10.2,0-20.5,0-30.7,0c-0.6,0-1.1-0.1-1.7-0.2
		c-0.6,0-1.1,0.1-1.7,0.1c-10.1,0-20.2,0-30.3,0c-0.6,0-1.1-0.1-1.7-0.1c-1,0.4-2.1,0.2-3.1,0.2c-28.8,0-57.6,0-86.5,0
		c-4.4,0-8.7,0-13.1,0C196.2,418.2,194.9,418.1,193.4,418.7z M199.5,375.1c0.1,0,0.2,0.1,0.3,0.2
		C199.7,375.2,199.6,375.2,199.5,375.1z M220.9,374.9c0.1,0,0.2,0,0.2,0.1C221,375,221,374.9,220.9,374.9z M220.2,576.8L220.2,576.8
		C220.3,576.7,220.3,576.8,220.2,576.8z M224.4,566.1c-1.1,3.1-2.1,6.2-3.6,9.2c-0.1,0.4-0.3,0.8-0.4,1.1c-0.1,0.2-0.2,0.3-0.3,0.4
		c-0.9,3.2-2.7,6-4.4,8.8c-1,1.6-2,3.2-3,4.8c-0.3,0.5-0.6,0.7-1.1,0.8c-0.7,0.1-1.3,0.2-2,0.2c-3.9,0.1-7.8,0.1-11.6,0.1
		c-1.2,0-1.2-0.1-1.2-1.3c0-8.1,0-16.3,0.1-24.4c0-1.3,0-2.6-0.1-4c0-1.7,0.2-1.7,1.8-1.7c1.2,0,2.5,0.1,3.7,0.1
		c7.6,0,15.2,0,22.7,0c0.6,0,1.1,0,1.9,0C226.5,562.6,225.3,564.3,224.4,566.1z"/>
	<path class="st1" d="M398.2,346.6c2.2-0.4,4.3-0.5,6.5-0.5c5.9-0.1,11.7,0.4,17.6,0.5c12.7,0.2,25.4,0.3,38.1,0.5
		c3.7,0,7.4,0.2,11.1,0.2c0.4,0,0.8,0,1.2,0c1.2-0.3,2.4-0.2,3.7-0.2c28.7,0,57.5,0.1,86.2,0.1c2.1,0,4.1,0,6.2,0
		c3.1-0.1,6.1-0.2,9.2-0.2c1.1,0,2.2,0,3.3,0c0.6-0.3,1.3-0.1,1.9-0.1c0.7,0,1.5-0.1,2.2-0.1c0.2,0,0.5-0.1,0.5-0.5
		c0-0.1-0.3-0.3-0.4-0.3c-1.2-0.1-2.4-0.2-3.6-0.3c-0.3,0.1-0.6,0.2-0.8,0.1c-9.1-0.3-18.3-0.3-27.4-0.3c-1,0-2.1-0.1-3.1-0.1
		c-0.8,0-1.5,0.1-2.3,0.1c-14.3,0-28.5,0-42.8-0.1c-0.8,0-1.7,0.3-2.5-0.3c-0.7,0.5-1.5,0.3-2.2,0.3c-5.1,0-10.1,0-15.2,0
		c-1.7,0-3.4-0.1-5.1-0.1c-0.4,0-0.7,0.1-1.1,0.1c-14.4-0.1-28.7-0.3-43.1-0.4c-6.7-0.1-13.4-0.2-20.1-0.5
		c-4.6-0.2-9.3-0.3-13.9-0.1c-1.7,0.1-3.4,0.2-5.1,0.6c-1.9,0.4-2.2,0.7-2.4,2.6c0,0.5-0.1,0.9-0.2,1.4c-0.1,3.6-0.3,7.2-0.4,10.8
		c0.4,0.9,0.2,1.9,0.3,2.8c0.1,13.3,0.2,26.6,0.3,39.9c0,2.6,0.1,5.3,0.1,7.9c0,0.7-0.1,1.5-0.1,2.2c0.1,2.1,0.1,4.2,0.2,6.2
		c0,0.9,0.4,1.4,1.4,1.8c1.2,0.6,2.2,0.9,3.5,0.7c1-0.1,2.1-0.1,3.1-0.2c9.9-0.2,19.9,0,29.8,0.2c0.8,0,1.7,0.1,2.5,0.2
		c0.8,0,1.5-0.1,2.3-0.1c17.5,0.1,35,0.1,52.5,0.2c1,0,2.1-0.4,3,0.3c0.9-0.6,1.8-0.3,2.7-0.3c18.7,0,37.4,0,56.1,0
		c0.8,0,1.5,0.1,2.3,0.1c4.4,0,8.9-0.1,13.3-0.1c6.3,0,12.5,0,18.8-0.1c2.4,0,2.5-0.2,2.6-2.6c0-0.4,0-0.8,0-1.1
		c0-4.3,0.1-8.5,0.1-12.8c0.1-17,0.1-33.9,0.2-50.9c0-1.4,0-2.8-0.1-4.3c0-0.5-0.1-0.9-0.2-1.4c-0.1-0.4-0.5-0.6-0.8-0.7
		c-0.4,0-0.8,0.2-0.9,0.6c-0.2,0.4-0.2,0.9-0.3,1.4c-0.1,0.9,0,1.9-0.1,2.8c-0.1,1.4-0.2,1.5-1.7,1.6c-2.6,0-5.1,0.1-7.7,0.1
		c-36.2,0-72.4-0.1-108.6-0.1c-23,0-46.1,0-69.1-0.1c-0.8,0-1.5,0-2.3-0.1c-0.4,0-0.7-0.3-0.7-0.8c0.1-1.7,0.1-3.4,0.2-5.1
		C396.9,346.8,396.9,346.8,398.2,346.6z M398.8,356.9c54.1,0,108.2-0.1,162.3-0.1c7.4,0,14.8,0,22.2,0c0.8,0,1.5,0,2.3,0
		c0.4,0,0.7,0.2,0.8,0.6c0.1,0.6-0.3,0.8-0.8,0.9c-0.9,0.1-1.7,0.1-2.6,0.2c-3,0-6.1,0.1-9.1,0.1c-55.5,0-111.1,0-166.6,0.1
		c-1.4,0-2.8,0-4.3,0.1c-0.2,0-0.5,0.4-0.5,0.6s0.2,0.5,0.5,0.6c0.4,0.1,0.9,0.2,1.4,0.2c1.9,0,3.8,0.1,5.7,0.1
		c48.8,0,97.6,0,146.4,0c8.9,0,17.8,0,26.7,0.1c1,0,2.1-0.2,3,0.3c0.4,0.9,0.2,1.9,0.2,2.8c0.1,13.7,0.1,27.5,0.2,41.2
		c0,4.2,0.1,8.3,0.1,12.5c0,0.8,0.1,1.7-0.2,2.6c-2.1,0-4.2,0-6.2,0c-3.4,0-6.8,0-10.2,0c-0.8,0-1.7-0.1-2.5-0.2
		c-0.9,0.3-1.9,0.2-2.8,0.2c-21.7,0-43.4-0.1-65-0.1c-22.1-0.1-44.1-0.1-66.2-0.2c-7.5,0-14.9-0.3-22.4-0.5
		c-2.9,0.1-5.9,0.2-8.8,0.3c-1.7,0.1-3.4,0.2-5.2,0.3c-0.5-0.7-0.3-1.6-0.3-2.4c0-15.2,0-30.3,0-45.5c0-3.9-0.2-7.8-0.3-11.6
		c0-1.1,0-2,0-2.9C397.3,356.7,398.1,356.9,398.8,356.9z"/>
	<path class="st1" d="M597.2,332.2c-0.1-0.4-0.2-0.7-0.4-1.1s-0.5-0.6-0.9-0.4c-0.2,0.1-0.5,0.4-0.5,0.6c-0.1,0.6,0,1.1,0,1.7
		c0.1,1.7,0.1,3.4,0.2,5.1c0.3,0.6,0.2,1.3,0.3,2c0.2,7.6,0.1,15.1-0.2,22.7c-0.5,15-0.7,29.9-0.7,44.9c0,47.4-0.1,94.8-0.1,142.1
		c0,0.6,0,1.1,0,1.7c-0.1,1.4-0.9,2.2-2.3,2.5c-0.6,0.1-1.1,0.1-1.7,0.1c-4.8,0.1-3.9,0.7-4-3.7c-0.1-3.1,0.1-6.3-0.1-9.4
		c-0.2-2.4-0.3-4.7-0.3-7.1c0-34.5,0-69,0-103.5c0-0.9,0-1.7,0-2.6c0-0.3-0.1-0.6-0.2-0.8c-0.2-0.3-0.6-0.4-1-0.3
		c-0.3,0.1-0.5,0.3-0.5,0.5c0,0.8,0,1.5,0,2.3c0,32.2,0,64.4,0.1,96.7c0,8.7-0.7,17.4-0.5,26.1c0,1.4-0.1,1.5-1.7,1.6
		c-1.2,0.1-2.5,0.2-3.7,0.3c-7.7,0.7-15.5,1.4-23.2,2.1c-5.3,0.5-10.6,1-15.8,1.5c-4.6,0.4-9.2,0.9-13.9,1.3
		c-5.7,0.5-11.3,0.9-17,1.3c-9.9,0.8-19.8,1.7-29.7,2.6c-1.6,0.1-3.2,0.1-4.8,0.2c-0.5,0.1-0.9,0.2-1.4,0.3
		c-5.5,0.5-10.9,0.9-16.4,1.3c-5.9,0.5-11.9,0.9-17.8,1.3c-5.2,0.4-10.4,0.7-15.6,0.9c-5.9,0.3-11.7,0.4-17.6,0.7
		c-3.9,0.2-7.7,0.7-11.6,1c-0.7,0.1-1.4,0.1-1.9,0.5c-0.2,0.2-0.3,0.5-0.3,0.7s0.3,0.5,0.5,0.6c0.4,0.1,0.9,0.1,1.4,0.1
		c6.3-0.6,12.7-0.8,19-1.1c7.4-0.4,14.8-0.1,22.1-0.7c6.8-0.5,13.6-0.9,20.4-1.4c5.9-0.4,11.9-1,17.8-1.4c6-0.5,12.1-0.9,18.1-1.3
		c9.3-0.7,18.7-1.5,28-2.2c3.4-0.3,6.8-0.7,10.2-0.9c3.3-0.2,6.6-0.9,9.9-0.8c1.8-0.6,3.7-0.6,5.6-0.5h0.1c0.5-0.1,1.1-0.3,1.6-0.4
		c5.9-0.5,11.7-0.9,17.6-1.3c5.2-0.4,10.4-0.9,15.6-1.4c1.9-0.2,3.8-0.3,5.6-0.4c0.5,0.9,0.2,1.8,0.2,2.6c0.1,7.6,0.1,15.1,0.1,22.7
		c0,0.8,0.2,1.7-0.2,2.5c0.2,2.3,0.3,4.6,0.1,6.9c-0.4,0-0.7,0.1-0.9,0.5c-2.7,0.2-5.3,0.3-8,0.1c-2.3,0.2-4.5-0.1-6.8-0.3
		c-0.9-0.1-1.5-0.5-1.9-1.4c-2.2-4.2-4.3-8.4-6.1-12.8c-2.2-5.1-4.3-10.3-6.8-15.3c-0.4-0.8-0.8-1.5-1.3-2.2c-0.2-0.3-0.6-0.5-1-0.4
		c-0.5,0.2-0.7,0.6-0.7,1.1c0,0.4,0.1,0.8,0.2,1.1c0.2,0.6,0.5,1.2,0.8,1.8c3.2,6.5,5.7,13.4,8.8,20c0.1,0.2,0.1,0.5,0.2,0.8
		c-0.1,0.3,0.1,0.5,0.3,0.7c0.9,1.8,1.8,3.5,2.7,5.3c0.2,0.4,0.4,0.9,0.3,1.3c-0.1,0.8,0.3,1.2,0.9,1.6c0.9,0.6,1.6,1.2,2.8,0.5
		c0.5-0.3,1.3-0.1,2,0c4.4,0.6,8.9,0.5,13.3,0.3c0.7,0,1.3,0,2-0.2c0.6-0.1,1-0.4,1.1-1.1c0.2-1.4,0.5-2.8,0.5-4.2
		c0-7.6,0-15.2,0-22.7c0-3,0-6,0-9c0.8-0.6,1.6-0.4,2.3-0.5c1.1-0.2,2.3-0.2,3.4-0.4c1.6-0.2,2.5-1.1,2.9-2.7
		c0.3-1.2,0.6-2.4,0.6-3.6c0-5,0-10,0-15.1c0-43.5,0-87,0-130.5c0-13,0-26,0.4-38.9c0.1-4.1,0.4-8.1,0.4-12.2c0-5.7-0.2-11.4-0.4-17
		C597.6,335,597.4,333.6,597.2,332.2z"/>
	<path class="st1" d="M393.6,431.6c0.9,1.2,2.1,0.1,3.1,0.3c0.1,0,0.2,0,0.3,0c6.4-1.1,12.8-1.2,19.3-1c6.3,0.1,12.5,0.3,18.8,0.4
		c11.9,0.1,23.9,0.1,35.8,0.2c8.7,0,17.4,0.1,26.1,0.1c10.7-0.1,21.4-0.2,32.1-0.6c9.6-0.4,19.1-0.5,28.7-1.1
		c2.9-0.2,5.9-0.3,8.8-0.5c0.3,0,0.6-0.1,0.8-0.1c4.1-0.2,8.3-0.5,12.4-0.7c0.9-0.1,1.9,0,2.7-0.5c0.4-0.2,0.6-0.5,0.6-0.9
		s-0.3-0.7-0.6-0.9c-0.9-0.4-1.8-0.3-2.8-0.2c-4.2,0.2-8.5,0.5-12.7,0.7c-5.8,0.6-11.7,0.9-17.6,1.2c-8.3,0.3-16.7,0.5-25,0.8
		c-14.5,0.6-29,0.8-43.5,0.8c-22.9,0-45.9-0.2-68.8-0.4c-5.2,0-10.4,0.3-15.6,1.3C395.6,430.5,394.3,430.4,393.6,431.6z"/>
	<path class="st1" d="M335.3,174.1c0.8-0.1,1.7-0.1,2.6-0.1c22.3,0,44.7,0,67,0.1c0.9,0,1.9-0.1,2.8-0.2c2.1,0.1,4.2,0.1,6.3,0.2
		c0,0.1,0,0.2,0,0.3s0,0.1,0,0.2h1.4c0-0.1,0-0.1,0-0.2c0-0.3-0.1-0.6-0.2-0.8c-0.1-0.1-0.3-0.2-0.5-0.2l0,0c-0.1,0-0.1-0.1-0.2-0.1
		c-2.1,0-4.1,0-6.2,0c-0.2,0.1-0.4,0.1-0.6,0.2c-1.1-0.1-2.3-0.2-3.4-0.2s-2.3,0.1-3.4,0.1c-21.3,0-42.5,0-63.8,0
		c-0.9,0-1.7,0-2.6,0c-0.7,0-0.8,0.6-1,1.2l0,0h1.2C334.8,174.4,335,174.2,335.3,174.1z"/>
	<path class="st1" d="M144.7,377.6c0,0-0.1,0.1-0.1,0.2C144.6,377.7,144.7,377.7,144.7,377.6z"/>
	<path class="st1" d="M619.6,181.1c-0.2-1.8-0.6-3.5-1.3-5.2c-1.3-3.3-4-4.5-7.6-3.6c-2,0.5-3.6,1.7-4.6,3.5
		c-1.5,2.6-2.5,5.5-2.7,8.5c-0.1,0.1-0.2,0.2-0.3,0.3c-0.1,0.2-0.1,0.3-0.1,0.5c-0.2,0.3-0.5,0.5-0.8,0.5c-1.5,0.3-2.9,0.5-4.4,0.8
		c-1.7-0.4-2.9,1-4.3,1.4c-0.5,0.1-0.8,0.8-0.8,1.4c-0.2,0.5-0.4,1.1-0.5,1.6c-0.2,0.8-0.7,1.1-1.4,1c-0.4,0-0.8,0-1.1,0
		c-5.5,0-10.9,0-16.4,0c-0.8,0-1.5-0.2-1.7-1.1c-0.2-1.3-1.1-1.5-2.2-1.6c-2.8-0.2-5.7,0-8.5,0c-1.1,0-1.7,0.6-1.9,1.7
		c-1.5,0-3,0.1-4.5,0.1c-0.8,0-1.5,0-2.3,0c-0.1,0.2-0.1,0.5-0.2,0.7c0.1-0.2,0.1-0.5,0.2-0.7c-0.4-0.1-0.7-0.2-1.1-0.2
		c-5.1-0.2-10.2-0.3-15.2-0.5c-0.8,0-1.5,0-2.3,0s-1.1,0.5-1.3,1.2c-1.7,0-1.7,0-4.1-1.1c-0.2-0.9,0.3-1.6,0.6-2.4
		c0.4-0.9,0-1.6-0.6-2.2c0-0.5-0.1-1.1-0.6-1.1c-1.2-0.1-1.6-0.8-1.9-1.7c-0.3-0.9-1-1.3-2-1.2c-0.3,0-0.6,0-0.9,0.1
		c-2.2,0.2-2.6,1-2.7,2.6c-0.4,3.3-0.7,6.6-1.2,9.9c-0.1,0.8,0.1,1.5,0.6,2.1c0.9,1.3,1.4,2.7,0.8,4.2c-0.1,0.3-0.1,0.6-0.1,0.8
		c0.1,0.5,0.4,0.9,0.9,0.9c1.2-0.1,2.4-0.3,3.7-0.4c1,0,1.3-0.7,1.6-1.4c0.1-0.1,0.2-0.3,0.1-0.4c0-0.3,0-0.5,0-0.8
		c0-1,0.2-1.8,1.4-1.9c0.3,0,0.7-0.4,0.8-0.6c0.3-0.9,1.3-1,1.6-1.8c0.6-0.5,1.2-0.7,1.6,0.1c0.4,0.8,1,1.1,1.8,1.1s1.7,0.1,2.5,0.1
		c6.4-0.1,12.8,0.3,19.2,0.6c0.5,0,0.9,0.1,1.4,0.1c0.5,0.1,0.7,0.5,1,0.9c0.4,0.8,1,1.4,1,2.4c-0.1,3.4-0.1,6.8,0,10.2
		c0,1.3-0.1,2.6-0.5,3.9c-0.1,0.1-0.2,0.3-0.1,0.5c-0.2,0.1-0.5,0.1-0.7,0.2c-0.4,0-0.7-0.1-1.1-0.1c-7.3,0-14.5-0.1-21.8,0
		c-5.5,0.1-10.9-0.1-16.4,0.4c-2.6,0-5.3,0.1-7.9,0.1c-1.6,0-3-0.4-4.2-1.4c-0.8-0.7-1.4-1.5-1.4-2.6c0-1.5-0.2-3-0.3-4.5
		c-0.1-1.7-0.1-3.4-0.1-5.1c0-1.3,0.1-1.4,1.4-1.6c0.5-0.1,1.2,0.1,1.4-0.6c1.2-0.8,1.7-2.2,2.4-3.3c0.4-0.6,0.4-1.2,0.5-1.9
		c0.1-4.4-0.3-8.8-0.6-13.2c0-0.4-0.3-0.7-0.7-0.8c-1.8-0.4-3.4-0.3-4.3,1.7c-0.7,0.4-1.3,0.9-1.7,1.7c-0.1,0.8,0,1.7-0.3,2.5
		c-0.3,0.9-1.5,0.6-2.1,1.2c-0.3,0.3-0.7,0.6-1,1c-1.1,1.1-2,2.3-2.8,3.6c-3.7,6-5.3,12.5-5,19.5c0.2,4.2,1.7,7.9,4.3,11.2
		c1.3,1.6,3,2.9,4.9,3.7c1.1,0.5,2.3,0.9,3.4,1.4c2.5,1.2,5.2,1.6,8,1.6c3.4,0,6.8,0,10.2,0c2.9,0,3.9,1.1,3.9,3.9
		c0.1,30.4,0.1,60.8,0.2,91.2c0,0.9,0.2,1.9-0.2,2.8c-0.2,0.1-0.4,0.2-0.6,0.2c-6,0-11.9,0-17.9-0.1c0-1.4,0-2.8,0-4.2
		c0-0.6,0.1-1,0.5-1.6c1.3-1.9,1.6-4,1.5-6.2c-0.1-2.3-0.4-4.5-1.2-6.6c-0.4-0.9-0.5-1.8-0.5-2.8c0-0.8,0-1.7-0.1-2.5
		c-0.1-1.6-1-3-2.6-3.2c-2.6-0.4-5.3-0.7-7.9,0.2c-2.9,1-2.7,0.7-2.7,3.7c0,0.5-0.1,1,0,1.4c0.3,1.2-0.1,2.2-0.7,3.2
		c-0.3,0-0.5,0.2-0.5,0.6c-2.4,2.7-2.5,5.7-0.8,8.8c0.3,0.5,0.5,1,0.8,1.5c0.3,1.1,0.7,2.1,0.6,3.2c-0.1,1.6-0.1,3.1-0.1,4.7
		c-0.8,0-1.5,0.1-2.3,0.1c-21.6,0-43.2,0-64.9,0c-0.8,0-1.5,0-2.3-0.1c0-0.7-0.1-1.5-0.1-2.2c0-3.8,0-7.7,0-11.5
		c0-0.7,0.2-1.5-0.3-2.2c0.1-1.5,0.2-3,0.2-4.5c0-13.3,0-26.6,0-39.9c0-9.4,0.1-18.9,0.1-28.3c0.6-0.1,1.1-0.3,1.7-0.4
		c1.1-0.2,1.1-0.2,1.4-1.6c0.1-0.3,0-0.7,0.2-0.8c1.1-0.6,1-1.7,1.3-2.7c0.2-0.9,1.1-1.4,2-1c1.1,0.4,2.2,0.3,3.3,0.2
		c2.2-0.1,4.3-0.1,6.5-0.1c0.9,0,1.2,0.3,1.2,1.2c0,0.5,0,0.9-0.1,1.4c-0.3,5.7,0.4,11.3,1,17c0.1,1.1,0.4,2.2,0.7,3.2
		c0.5,0.1,0.9,0.1,1.3,0.1c0.8,0.1,1.3,0,1.5-0.9c0-0.2,0.1-0.4,0.2-0.5c0.4-0.8,0.2-2.2,1.4-2.1c0.9,0.1,0.6,1.4,1,2.1
		c0.2,0.3,0.1,0.7,0.3,1.1c0.1,0.2,0.3,0.5,0.5,0.7c0.7,0.4,1.5,0.3,2.2,0.1c0.7-0.1,0.7-0.8,0.8-1.3c0.1-0.7,0.3-1.5,0.4-2.2
		c0.5-5.3,1.1-10.5,1.3-15.8c0-0.5,0.1-0.9,0.1-1.4c0.1-0.7,0.5-1,1.2-0.9c1,0,2.1,0,3.1,0c3.1,0.2,6.2,0.4,9.4,0.5
		c2.6,0.1,5.3,0.1,8,0.1c1.3,0,1.7-0.4,1.9-1.6c0.1-1,0.2-2.1,0.1-3.1c0-2.4-0.2-2.5-2.7-2.6c-5.8-0.2-11.6-0.3-17.3-0.1
		c-1.1,0-2.2,0-3.3,0c-0.1-2.5-0.2-5.1-0.4-7.6c-0.3-4.7-0.8-9.3-1.4-14c-0.1-0.2-0.1-0.4-0.2-0.6c-0.1-0.5-0.3-1.1-0.4-1.6
		c-0.2-0.6-0.5-1-1.2-1.1c-0.7,0-1.3,0.1-1.6,0.8c-0.4,0.9-0.8,1.7-1.2,2.6c-0.1,0.2-0.3,0.5-0.6,0.4c-0.2-0.1-0.5-0.3-0.6-0.5
		c-0.4-0.8-0.7-1.6-1-2.4c-0.3-0.7-0.7-1.1-1.4-1.1c-0.8,0-1.2,0.3-1.5,1.4c-0.2,0.7-0.4,1.5-0.5,2.2c-0.9,5.2-1.3,10.5-1.3,15.8
		c0,0.9,0,1.7,0,2.6c0,0.8-0.4,1.2-1.2,1.3c-0.3,0-0.6,0.1-0.8,0.1c-5-0.1-10,0.5-15,0c-0.4-0.6-0.3-1.2-0.3-1.9
		c-0.1-0.9,0.1-1.8-0.3-2.7c-0.1-0.1-0.2-0.4-0.3-0.4c-1.1,0-1.5-0.6-1.4-1.6c0-0.4,0-0.8,0-1.1c0-15.8-0.1-31.6-0.1-47.4
		c0-0.8,0-1.5,0-2.3c-0.1-1.3-0.6-1.9-1.9-2c-0.8-0.1-1.7,0-2.6,0c-29.7,0-59.5,0.1-89.2,0.1c-0.7,0-1.5-0.2-2.2,0.2
		c-0.5,0.1-0.6,0.3-0.2,0.6c0.4,0,0.8,0,1.2,0c1,0,2.1-0.1,3.1-0.1c28.9,0,57.8,0.1,86.7,0.1c1.1,0,2.3,0,3.4-0.1
		c0.2,0.2,0.5,0.3,0.5,0.6c0,0.8,0.1,1.7,0.1,2.5c0,16,0,31.9-0.1,47.9c0,2.6,0.2,2.5-2.4,2.5c-0.8,0-1.5,0-2.3,0
		c-0.9,0-1-0.7-1.1-1.3c0.3-5.1,0.1-10.2,0-15.2c0.2-2.9,0.2-5.8-0.1-8.6c0-0.7,0-1.4,0-2.1c0-0.1,0.1-0.2,0.1-0.3
		c0-3.8,0-7.5,0.1-11.3h-1.1c0,0.4,0,0.8-0.2,1.3c-1.1,0.2-2.2,0.6-2.8-0.9c0-0.1-0.2-0.2-0.4-0.1v5.5h-1c-0.1,1.9,0,1.7-3,1.7
		c-0.5,0-0.9-0.1-1.4-0.1s-0.9-0.2-1-0.8c-0.3-1.9-1-3.6-0.9-5.5c0.2-0.3,0.6-0.5,0.9-0.5v-0.6H403c-0.1,0.1-0.2,0.2-0.2,0.3
		c-0.5,1.1-1.5,1-2.4,1c-5.7,0-11.4,0-17,0c-0.6,0-1.1-0.1-1.7-0.1c-0.5-0.1-0.5-1-1.4-0.8l0,0v5.1h-0.7c-0.1,0.6-0.2,1.2-0.3,1.8
		c0,0.1,0.2,0.3,0.3,0.3c0.2,0,0.4-0.1,0.5-0.2c0.3-1.3,0.5-2.6,0.8-3.9c0.2-1.2,0.3-1.2,1.5-1.3c6.3,0,12.7,0,19,0
		c1.1,0,1.3,0.2,1.5,1.3c0.3,1.8,0.1,3.8,2,5c0.3,0.2,0.2,0.7,0,1.1c-0.2,0.4-0.6,0.3-1,0.2c-0.7-0.2-1.5-0.4-2.2-0.4
		c-1.5-0.1-2.1,0.5-2.1,2c0,1.2,0.2,2.4,0.4,3.7c0.2,1,0.8,1.5,1.8,1.4c0.8-0.1,1.5-0.2,2.2-0.4c2.3-0.5,4.6-0.8,6.9,0.2
		c0.9,0.4,2,0.5,2.8-0.5c0.1-0.3,0.1-0.7,0.2-1c0.7,0.8,0.5,1.8,0.5,2.7c0.1,1.6,0.1,3.2,0.1,4.8c-0.1,5.1-0.2,10.2,0,15.2
		c-0.2,0.6-0.2,1.3-1.1,1.3c-2.1,0-4.1,0-6.2,0c-8.4,0-16.8,0-25.1,0c-1,0-2.1-0.1-3.1-0.2c0-0.9-0.1-1.9-0.1-2.8c0-8,0-16.1,0-24.1
		c0-0.9,0.2-1.9-0.2-2.8c-0.2-0.4-0.5-0.5-0.9-0.5c-0.9,0-1.9,0-2.8,0c-0.3,0-0.6,0-0.8-0.1c-0.3-0.1-0.5-0.1-0.6-0.5
		c-0.1-0.5,0.3-0.4,0.5-0.4c1.2-0.2,2.4,0.2,3.5-0.2c-0.1-0.6-0.5-0.7-0.8-0.8c-0.9-0.1-1.9-0.2-2.8,0c-1.1,0.2-1.5-0.3-1.8-0.9
		h-0.3v-0.4c-0.1-0.7-0.1-1.5-0.2-2.2c0-0.8,0-1.7,0-2.5c0.1,0,0.1,0,0.2-0.1v-0.3h-1.2c-0.1,0.2-0.1,0.5-0.2,0.7
		c-0.1,0.6-0.4,0.8-0.9,0.9c-0.5,0-0.9,0-1.4,0c-5.7,0-11.4,0-17,0c-0.8,0-1.7,0.3-2.3-0.7c-0.2-0.4-0.7,0-0.8,0.4
		c-0.2,1.3-0.4,2.6-0.6,3.9c-0.2,1.4-0.2,1.4-1.5,1.5c-3.7,0.1-4,0.3-4.2-1.2h-0.9v-5.5h-0.7c-0.1,0.2-0.2,0.4-0.2,0.7
		c0,0.7-0.5,0.9-1.1,1c-0.6,0-1.1,0-1.7,0.1c-0.4,0.1-0.6,0.4-0.7,0.8c0,1.5,0,3,0,4.5c0,9.6,0,19.1,0,28.7c0,0.8,0,1.5,0,2.3
		s-0.4,1.1-1,1c-0.7,0-1-0.5-1-1.1s0-1.1,0-1.7c0-10.4,0-20.8,0-31.3c0-0.8-0.1-1.7,0.3-2.5c-0.1-0.8-0.2-1.7-0.2-2.5h-1
		c0,0.5,0,0.9-0.1,1.4c0,0.9,0.1,1.7,0.1,2.6c0,11.1,0,22.2,0,33.3c0,0.6,0.3,1.4-0.5,1.8c-1.6,0.3-3.2,0.1-4.8,0.1
		c-0.7,0-1-0.4-1-1.1c0-0.4,0-0.8,0-1.1c0-16.3,0-32.5,0-48.8c0-0.7,0.1-1.3,0.1-2c0-0.2,0-0.4,0-0.6c-0.4,0-0.8,0-1.2,0
		c0,16.8,0,33.5,0,50.3c0,3.6,0.4,3.3-3.4,3.3c-11.3,0-22.5,0-33.8,0c-0.8,0-1.7,0-2.5,0.1c-0.4,0-0.6,0.4-0.5,0.8
		c-0.1,3-0.1,6-0.2,8.9c-1.1,0-2.3,0.1-3.4,0.1c-24.6,0-49.2,0-73.9,0c-1.1,0-2.4-0.4-3.3,0.4c-0.8,0.7-0.2,2-0.6,3
		c-0.7,0.3-1.2,0.9-1.6,1.5c-0.6,1.1-1,2.2-0.1,3.4c0.8,1.1,0.6,2.3,0.3,3.5c-0.5,2-0.5,3.9,0,5.9c0.2,0.8,0.2,1.7,0.2,2.5
		c0,1.8-0.2,3.6,0.1,5.4c0.4,2.3,0.5,4.7,0.6,7c0,0.3,0.3,0.6,0.5,1c0.3,4.5,0.2,9,0.1,13.5c0,0.3-0.1,0.6-0.1,0.8
		c-1-0.3-1.7-1.1-2.5-1.7c-0.5-0.3-0.8-0.8-1.3-1c-3-1.2-5.9-2.7-9.2-3.2c-1.5-0.7-3-0.7-4.5-0.1c-0.2,0.3-0.3,0.7-0.5,1
		c-0.4,2.3-0.2,4.6-0.1,6.9c0,1.6,0.4,1.9,2.4,2.5c1.3,0.2,2.2,1,3.4,1.4c0.7,0.3,1,0.8,1,1.6c0,0.4,0,0.8,0,1.1
		c0,6.2,0,12.3-0.1,18.5c0,0.6,0,1.1-0.1,1.7c0,0.4-0.3,0.7-0.7,0.8c-0.4,0.1-0.8,0.1-1.1,0.1c-4,0-8,0-11.9,0.1c-0.3,0-0.6,0-0.9,0
		c-0.5-0.1-0.9-0.3-0.9-0.9c0-0.3,0-0.6,0-0.9c0-6.7,0-13.5,0-20.2c0-0.5-0.1-1.1,0.4-1.8c1.5,0.2,3.1,0.4,4.7,0.6
		c1.2,0.1,1.6-0.1,1.6-1.3c0.1-1.9,0.1-3.8,0.1-5.7c0-1.8-0.1-1.9-2-2.5c-2.9-0.9-5.8-1.7-8.6-2.9c-0.6-0.3-1.3-0.4-1.9-0.3
		c-1.5,0.2-3,0.5-4.5,0.7c-0.4,1.2-0.3,2.3-0.2,3.4c0,1-0.4,1.5-1.3,1.9c-2.6,1-5.3,2.2-7.7,3.6c-3.5,2-5.3,5-5.1,9.1
		c0,5.1-0.1,10.2-0.1,15.3c0,0.9,0.2,1.9-0.3,2.8c-1.7,0.4-1.8,1.6-1.8,3c-0.1,0.7-0.2,1.5-0.4,2.2c-0.1,0.5-0.6,0.6-1.2,0.5
		c-0.4-0.1-0.6-0.3-0.7-0.8c-0.1-0.8-0.1-1.7-0.2-2.5c-0.2-1.5-1-2.2-2.4-2.3c-1.7-0.1-3.4-0.4-4.9,0.6c-0.7,0.2-1.1,0.6-1.1,1.3
		c0,0.9-0.2,1.8,0.5,2.6c0,0.4-0.1,0.8-0.1,1.1c-0.5,0.2-0.7,0.6-0.8,1c-0.9,2.8-0.8,5.5,0.4,8.1c0,1,0.5,1.7,1.5,2
		c0.7,0.3,1.5,0.2,2,0.8c0,0.9,0,1.9,0.1,2.8c0.3,4.2,0.8,8.5,0.9,12.7c0.1,5,0.6,10,0.9,15c0.2,3.4,0.6,6.8,0.8,10.2
		c0.2,2.9,0.5,5.8,0.2,8.8c-1.1,0.1-1.9,0.7-2.3,1.7c-0.5,1.2-0.5,2.3,0.2,3.4c0.2,0.4,0.4,0.7,0.9,0.7c1.9,0.4,3.8,0.6,5.7,0
		c1.3-0.2,1.9-1.1,2.2-2.2c0.2-1.2-0.1-2.2-1.1-2.9c-0.3-0.3-0.6-0.6-1.1-0.6c-0.8-0.6-0.6-1.5-0.6-2.4c-0.4-8.9-0.7-17.9-1.1-26.8
		c-0.2-4-0.6-7.9-0.9-11.8c-0.2-2.4-0.4-4.9-0.6-7.3c0.1-0.2,0.3-0.4,0.4-0.6c0.7-0.2,1.4-0.4,2.1-0.6c1.1-0.2,2.1,0.5,3.3,0.5
		c6.6,0,13.3,0.1,19.9,0.1c3.3,0,6.6,0.1,10,0.1c0.4,0,1-0.2,1.2,0.4s0.6,0.7,1.1,0.6c4-0.9,8.1-0.9,12.2-1c8.3,0,16.5,0.5,24.7,0.9
		c9.9,0.4,19.9,0.6,29.8,0.7c16.7,0.2,33.4,0.2,50,0.3c10.7,0.1,21.4,0.1,32.1,0.1c79.1,0,158.3,0.1,237.4,0.1c4.3,0,8.5,0,12.8,0
		c1.6,0,3.2-0.3,4.8-0.6c0.3-0.1,0.5-0.2,0.4-0.6c0-0.1-0.2-0.3-0.4-0.3c-1.9-0.4-3.7-0.6-5.6-0.6c-13,0-26,0-39,0
		c-0.9,0-1.9,0-2.8-0.1c-0.2,0-0.4-0.3-0.6-0.5c0.5-1,0.6-2.2,0.6-3.3c0.1-4.2,0.2-8.3,0.3-12.5c0.2-14.9,0.3-29.7,0.4-44.6
		c0.1-12.3,0.1-24.6,0.1-36.9c0.4-0.4,0.8-0.4,1.3-0.4c0.8,0.2,1.6,0.1,2.4,0c1.6,0,3.1,0,4.7,0.1c1.5,0.1,3,0.1,4.5-0.1
		c7.4-1.1,12.4-5.5,13.7-12.5c1.2-6.2,2-12.5,1.7-18.9c0.1-0.2,0.1-0.3,0.1-0.5c0.3-0.1,0.6-0.2,0.8-0.2c5.9,0.8,11.9,0.8,17.8,0.7
		c0.5,0,0.9,0,1.4,0c0.4,0,0.6,0.3,0.7,0.7c0,0.4,0.2,0.7,0.3,1.1c0,0.2,0,0.4,0.1,0.5c-0.2,0.6,0.1,1,0.4,1.5c0,0.3,0,0.6-0.1,0.8
		c-0.2,1.3,0.3,2.2,1.4,2.8c1,0.6,2.2,0.3,2.9-0.5c0.9-1.1,1.7-0.7,2.7-0.2c1.3,0.7,2,1.6,1.9,3.2c0,0.8,0.1,1.7,0.3,2.5
		c0.5,2.6,1.3,4.9,3.2,6.8c1.9,1.9,4.2,2.1,6.4,0.7c0.9-0.6,1.6-1.3,2.2-2.2c2.2-2.7,3.4-5.9,4.1-9.2c0.8-3.7,1-7.5,1.4-11.2
		C620,190.5,620.1,185.8,619.6,181.1z M527.1,186.2c0.1-0.1,0.1-0.2,0.2-0.4C527.3,185.9,527.2,186.1,527.1,186.2z M530,194.3
		c0,0-0.1,0-0.2-0.1C529.9,194.2,529.9,194.3,530,194.3c0.1-0.2,0.1-0.3,0.2-0.4C530.2,194,530.1,194.2,530,194.3z M530.4,193.5
		c0-0.1,0-0.1,0-0.2C530.4,193.4,530.4,193.4,530.4,193.5z M545.6,191.8c0.2-0.3,0.4-0.4,0.7-0.4C546,191.4,545.8,191.6,545.6,191.8
		z M506.4,194.8c-0.1,0.1-0.2,0.3-0.3,0.5C506.2,195,506.3,194.9,506.4,194.8z M502.7,197.3c0.1,1-0.1,1.9,0.6,2.7
		C502.5,199.2,502.7,198.3,502.7,197.3z M457.8,227.9c-0.9,0-1.8-0.1-2.8-0.1C455.9,227.8,456.8,227.8,457.8,227.9z M455.7,228.3
		c0.7,0,1.4-0.1,2.1-0.1c0.3,0.1,0.7,0.2,1.1,0.1c4.2-0.5,8.5-0.2,12.7-0.1c1.6,0.1,3.2,0,4.8,0.1c0.9,0,1.2,0.3,1.2,1.2
		c0,0.7,0,1.3,0,2c-0.3,2.2-0.5,2.4-2.6,2.4c-2.2,0-4.3-0.3-6.5-0.4c-0.6,0-1.1,0.1-1.7,0.1c-2.6,0-5.2-0.1-7.8-0.1
		c-1-0.5-2-0.3-3.1-0.5c-0.7-0.1-1-0.4-1-1.1c0-1-0.1-2.1-0.1-3.1C455,228.5,455.3,228.3,455.7,228.3z M442.7,220.9
		c0.3-5.4,0.4-10.8,1.4-16.1c0.1-0.4,0.1-0.8,0.2-1.1c0.1-0.2,0.4-0.5,0.6-0.5s0.6,0.1,0.7,0.3c0.4,0.7,0.7,1.5,1,2.3
		c0.6,1.4,0.7,1.5,2.3,1.3c0.4,0,0.7-0.1,0.9,0.3c0.4,0.2,0.5,0.5,0.5,0.9c0.1,1.2,0.4,2.4,0.4,3.7c0.4,8.2,1.1,16.4,0.6,24.6
		c-0.1,1.9-0.1,3.8-0.2,5.6c-0.1,2.2-0.2,4.3-0.3,6.7c0.8-0.5,0.5-1.1,0.6-1.5c0.8-8.4,0.7-16.7,0.6-25.1c0-1.2,0-2.4-0.1-3.7
		c-0.5-1.2-0.6-2.5-0.6-3.8c0-2.7-0.2-5.4-0.7-8c-1.2-0.4-1.2-0.5-1-1.2c0.2-0.6,0.4-1.2,0.7-1.8c0.1-0.3,0.3-0.5,0.6-0.5
		c0.5,0,0.6,0.4,0.7,0.7c0.2,1.1,0.4,2.2,0.6,3.3c0.6,4,1.1,8,1.3,12c0.1,2.2,0.2,4.5,0.3,6.7c0,0.6-0.1,1.3,0.3,1.9
		c0,0.3,0.1,0.6,0.1,0.9c-0.5,0.4-0.4,1-0.5,1.6c-0.1,6.4-0.8,12.8-1.3,19.3c-0.1,1.5-0.4,3-0.6,4.5c-0.1,0.5-0.3,0.9-0.9,0.9
		c-0.7,0-1.1-0.2-1.2-0.9c-0.2-0.8-0.4-1.6-0.6-2.5c-0.1-0.6-0.4-1-1.1-1c-0.6,0-1.1,0.3-1.3,0.9c-0.3,0.9-0.7,1.8-1,2.6
		c-0.2,0.4-0.6,0.6-0.9,0.4c-0.2-0.1-0.5-0.3-0.6-0.6c-0.3-1.4-0.5-2.8-0.7-4.2c-0.8-5.8-0.8-11.7-0.7-17.6c0-2.4,0.2-4.7-0.2-7.1
		C442.6,223.8,442.7,222.3,442.7,220.9z M435.1,227.3c0.2,0,0.6,0.8,0.9,1.3c0.1-0.3,0.2-0.6,0.3-0.8s0.1-0.4,0.2-0.5
		c0.2-0.2,0.3-0.1,0.3,0.2c0.1,1,0.3,2,0.5,3c0.1,0.6-0.4,1.1-1,1c-0.4,0-0.7-0.1-1.1-0.2c-0.4-0.1-0.6-0.4-0.6-0.8
		c0-0.6,0-1.1,0.1-1.7C434.7,228.3,434.1,227.4,435.1,227.3z M433,227.3c0-0.1,0.1-0.2,0.1-0.2c0.1,0,0.2-0.1,0.2-0.1
		c0.1,0,0.2,0,0.2,0c0.4,0.7,0.1,1.5,0.2,1.9c0,0.9,0,1.4,0,2c0,0.1-0.2,0.3-0.3,0.3c-0.1,0-0.4-0.2-0.4-0.3
		C432.8,229.7,432.9,228.5,433,227.3z M426.6,236.9c0,0.5-0.4,0.5-0.8,0.6c-0.4,0-0.8,0-1.1,0c-0.3-0.5-0.2-1.1-0.1-1.7
		c0.5,0,1-0.1,1.4,0C426.5,235.9,426.7,236.4,426.6,236.9z M428.1,233.4c-0.1,1.1-0.2,1.2-1.4,1.3c-0.7,0-1.3,0-2,0
		c-0.4-1.1-0.1-2.2-0.2-3.4c0.1-0.2,0.2-0.3,0.4-0.5h0.1c1,0.2,2,0.4,3,0.7C428.3,232.1,428.2,232.7,428.1,233.4z M424.4,228.4
		c0.9,0,0.6-1.1,1.2-1.6c0.6,0.3,0.4,1.2,0.9,1.5c-0.2,1.3-0.2,1.4-1.3,1.2c-0.3,0-0.5-0.1-0.8-0.2
		C424.4,229,424.4,228.7,424.4,228.4z M400.5,193.8c-0.1-0.4,0-0.9,0-1.4c0-0.3,0.8-0.4,1-0.2c0.4,0.5,0.4,1,0.3,1.6
		c-0.1,0.3-0.4,0.4-0.8,0.4C400.9,194.1,400.5,194,400.5,193.8z M401.7,197.1c-0.6,0-0.7-0.4-0.7-0.9c0-0.6,0.4-0.8,0.9-0.8
		c1.2,0,2.3,0.4,3.4,0.9C404.1,197.1,402.9,197.1,401.7,197.1z M408.3,192.3c-0.4,0.1-0.7,0.1-1.1,0.1c-0.8,0-1.1-0.4-1.1-1.3
		c-0.1-0.6,0.2-0.7,1.1-0.8c0.1,0,0.2,0,0.3,0c0.2,0,0.5,0,0.8,0.1c0.4,0.1,0.6,0.4,0.6,0.8C408.9,191.7,408.9,192.2,408.3,192.3z
		 M413.6,194.8c-0.1,0.1-0.4,0-0.5-0.1c-0.4-0.5-0.4-1.1,0-1.7c0-0.1,0.2-0.1,0.2-0.1c0,0.3,0.1,0.4,0.4,0.2
		C413.9,193.7,414.3,194.3,413.6,194.8z M191.7,279.3c0.3,0.1,0.4,0.3,0.5,0.6C192.1,279.7,191.9,279.5,191.7,279.3z M146,326.6
		c0.1,0,0.3,0.1,0.4,0.2C146.2,326.7,146.1,326.7,146,326.6z M144.7,380.9c-0.2-0.3-0.3-0.5-0.3-0.8
		C144.5,380.4,144.6,380.6,144.7,380.9c0.1,0.1,0.2,0.3,0.3,0.4C144.9,381.2,144.8,381.1,144.7,380.9z M151,377.8
		c-2.1,0.1-4.3,0.2-6.4,0.3C146.7,377.9,148.9,377.8,151,377.8z M151.2,324.8c0,0.2,0.1,0.3,0.1,0.4
		C151.2,325.1,151.2,325,151.2,324.8z M152.6,310.3c-0.1,0-0.1,0-0.2,0.1C152.5,310.4,152.6,310.4,152.6,310.3z M160.3,325.4
		c1.2,0.1,2.3,0.2,3.5,0.2C162.6,325.6,161.4,325.6,160.3,325.4z M173.3,281.2c0-1.2,0-2.4,0.1-3.5
		C173.4,278.9,173.3,280.1,173.3,281.2c-1,0.2-2,0.4-3,0.5C171.3,281.5,172.3,281.4,173.3,281.2z M193.8,282.1
		c0.2,0.4,0.3,0.9,0.3,1.4C194.1,283,194,282.5,193.8,282.1z M194.2,305.5c0-0.4,0.1-0.9,0.1-1.5C194.3,304.5,194.3,305,194.2,305.5
		z M209.1,289.1c0,0,0.1,0.1,0.2,0.3C209.2,289.3,209.2,289.2,209.1,289.1z M211.5,238c0,0.2,0.1,0.4,0.1,0.7
		C211.6,238.5,211.5,238.2,211.5,238z M260.4,326.1c0.2,0,0.4-0.3,0.6-0.4C260.8,325.9,260.6,326.1,260.4,326.1z M250.6,308.8
		c3.5,0.5,7,0.2,10.4-0.2C257.6,309.1,254.1,309.4,250.6,308.8z M285.8,319.6c0,2.5,0,5.1,0.1,7.6c-1.4,0.1-2.8,0.1-4.2,0.1
		c-5.8,0-11.5,0-17.3,0c-0.2-0.2-0.3-0.4-0.1-0.6c1.5-0.2,2.1-1.1,2-2.5c-0.1-3.2-0.2-6.3-0.4-9.5c-0.1-1.7,0.1-3.4-0.3-5
		c0-0.7-0.3-1.1-1-1.2l-0.1-0.1c-1.1-1-2.5-0.8-3.8-0.7c-6.6,0.3-13.3-0.1-19.9-0.2c-1.6,0-1.7-0.2-1-1.5c0.9-1.8,1.9-3.5,2.9-5.2
		c1.1-1.9,2.2-3.8,3.2-5.7c0.6-1,0.9-2.1,0.5-3.3c-0.1-0.3-0.3-0.8-0.5-0.9c-1.7-0.8-3.3-1.9-5.3-2c-1.4-0.1-2.8-0.1-4.2-0.1
		c-4.5-0.1-8.9-0.2-13.4-0.2c0-1-0.1-2.1-0.1-3.1c0-13.1,0-26.3,0-39.4c11.6,0,23.2,0,34.8,0c9.3,0,18.7,0,28,0
		c0.3,1,0.2,2.1,0.2,3.1c0,21,0,42.1,0,63.1c0,1.6,0.1,3.2,0.1,4.8C285.7,317.9,285.8,318.8,285.8,319.6z M326.6,327.4
		c-7-0.1-14-0.1-20.9-0.1c-0.4,0-0.8,0-1.1,0c-0.4,0-0.7-0.3-0.7-0.7c0-0.5,0-0.9,0-1.4c0-23.3,0-46.6,0-69.9c0-3.2,0.1-6.4,0.1-9.7
		c-0.2,0-0.4,0-0.6-0.1c0.2,0,0.4,0,0.6,0.1c0.4-0.7,0.3-1.5,0.3-2.2c0.1-1.2,0-2.5,0.2-3.7c0.1-1.1,0.1-2.4,0.7-3.2
		c0.7-0.9,2.1-0.4,3.2-0.4c4.9,0,9.8,0,14.8,0c0.7,0,1.3,0,2,0c1.2,0,1.4,0.2,1.4,1.3c0,0.8,0,1.7,0,2.6c0,18.3,0,36.5,0.1,54.8
		c0,5.3,0.2,10.6,0.2,15.9C326.9,316.3,327.2,321.9,326.6,327.4z M374.4,237.5c-0.1-1.6,0-1.7,1.7-1.7c2.6,0,2.4-0.1,2.6,2.4
		c0.1,2.4,0.3,4.9,0.4,7.4c-0.9,0.3-1.8-0.4-2.7-0.1c-0.3-0.1-0.6-0.2-1-0.2C374.7,242.8,374.6,240.1,374.4,237.5z M337.7,237.3
		c0.1-0.9,0.2-1.2,1.2-1.2c1.9,0,3.8,0,5.6,0c1,0,2.1,0,3.1,0c1.5,0,1.8,0.2,2,1.1c0.3,1,0.1,1.2-1.5,1.9c-1.1,0.5-2.2,1-3.3,1.6
		c-1.6,0.9-3.2,1.9-4.1,3.7c-0.5,0.5-1,1.1-1.6,1.5s-1.4,0-1.4-0.7c0-1.6-0.1-3.2-0.1-4.8C337.9,239.4,337.7,238.3,337.7,237.3z
		 M349.3,239.8c0.5-0.2,1-0.5,1-1.2c-0.1-0.9,0.4-1.3,1-1.6c2.6-1,5.3-1.2,8.1-0.6c0.8,0.2,1.6,0.5,1.7,1.6c0.1,0.7,0.7,0.9,1.2,1.1
		c1.2,0.4,2.3,0.8,3.5,1.2c1.9,0.7,3.5,1.8,5,3.2c0.3,0.3,0.7,0.6,0.7,1.2c-5.4-0.6-10.7-1-16.1-0.9c-1.4,0.4-2.9,0.3-4.4,0.5
		c-1.2,0.1-2.4,0-3.5,0.6c-0.6,0-1.2,0-1.7,0c-1.4,0.4-2.7,0.7-4.2,0.6c-0.3,0-0.4-0.3-0.4-0.6C343.6,242.7,346.2,240.9,349.3,239.8
		z M359.5,233.1c0.8,0.2,1.1,0.6,1.2,1.7c0,0.6-0.3,1-0.8,0.9c-3.2-0.8-6.2,0.1-9.4,1c-0.1-0.8-0.1-1.1-0.1-1.5
		c-0.1-0.6,0.2-1.1,0.8-1.4C353.9,232.6,356.7,232.4,359.5,233.1z M352.5,219.4c0-1.4,0-2.8,0-4.2h0.1c0.1-2,0.3-3.9,0.4-5.9
		c0-0.6,0.4-1,1-1.2c2-0.6,3.9-0.2,5.8,0.3c0.4,0.1,0.6,0.4,0.7,0.8c0.1,0.1,0.1,0.4,0.1,0.7c0,3.2-0.2,6.4-0.5,9.6
		c-0.1,0.6-0.4,1-1.1,1.1c-1.8,0-3.6,0-5.4,0C352.7,220.6,352.5,220.3,352.5,219.4z M364.2,238.6c-0.5-0.1-0.9-0.2-1.4-0.4
		c-0.7-0.3-0.9-0.9-0.7-1.6c0.1-0.6,0.6-0.7,1.1-0.7c3,0,6.1,0,9.1,0c0.6,0,0.9,0.3,0.9,0.8c0,0.1,0,0.2,0,0.3
		c0.4,2.5,0.3,5.1,1.3,8c-0.8-0.4-1-0.5-1.1-0.6C371,241.3,367.8,239.7,364.2,238.6z M380.9,235.9c8.3,0,16.7,0,25,0
		c0.2,0,0.4,0.1,0.6,0.2c-0.1,2.4-0.7,4.6-1.4,6.9c-1.3,4.2-3.1,8.1-5.4,11.8c-1,1.5-2,3-3.4,4.2c-2.7,2.5-5.9,2.4-8.4,0.9
		c-4.9-3.1-7.7-7.4-7.8-13.3c0-3.3-0.1-6.5-0.2-9.7C379.9,236.1,380.1,235.9,380.9,235.9z M374.4,217c0-8.5,0-16.9,0-25.4
		c1.2-0.2,2.4-0.2,3.6,0c0,9.6,0,19.1,0,28.7c-1.2,0.5-2.4,0.4-3.7,0.1C374.3,219.3,374.4,218.1,374.4,217z M345.4,193.1
		c0.6,0,1.3,0,1.9-0.1c0.6,0,1.1,0,1.7,0c0.4,0,0.6,0.4,0.6,0.8c0,0.4,0,0.8-0.4,0.9c-1.2,0.2-2.4,0.5-3.6,0.5
		c-0.7,0-0.8-0.7-0.8-1.3C344.8,193.5,344.9,193.1,345.4,193.1z M342.4,193c0.1-0.3,0.2-0.5,0.6-0.4c0.8,0.1,1,0.4,1,1.3
		c0,0.2,0,0.5-0.4,0.6C342.9,194.6,342.3,193.8,342.4,193z M340.3,192.2c0.2-0.3,0.5-0.2,0.7-0.1c0.7,0.4,0.6,1,0.4,1.6
		c1.3,1.8,3,2.6,5.3,2.3c0.6-0.1,1.1-0.2,1.7-0.2s0.7,0.5,0.8,1c0.1,0.4-0.6,0.8-1,0.7c-0.5-0.2-1.1-0.3-1.6-0.6s-1.1-0.5-1.6-0.4
		c-1.8,0.4-2.8-0.6-3.7-1.8c-0.2-0.3-0.5-0.6-0.7-0.9C339.9,193.4,339.9,192.8,340.3,192.2z M344.3,197.3c0.8-0.1,1.5,0,2.2,0.5
		c1,0.8,2.1,0.6,3.3,0.4c0.6-0.1,1.3-0.3,1.1-1.3c-0.1-0.4,0.4-0.6,0.7-0.7c1.2-0.3,1.6-1.2,1.6-2.4c0.1-1.2-0.2-1.6-1.4-1.7
		c-1.1-0.1-2.3-0.1-3.4-0.1c-0.6,0-0.9-0.3-0.9-0.9c0-0.4-0.1-1.1,0.1-1.4c1.2-1.2,0.9-2.8,1.2-4.3c0.2-1.2,0.4-1.4,1.7-1.4
		c6.3,0,12.7,0,19,0c0.6,0,1.1,0.1,1.5,0.5c0.1,0.7,0.2,1.5,0.3,2.2c-0.2,1.9-0.1,3.6,1.9,4.6c0,6.7,0,13.3,0.1,20c0,3,0.1,6,0.1,9
		c-3.7,0.4-7.4,0.1-11,0.1c-0.9,0-1.2-0.3-1.2-1.2c0-2.2,0.2-4.3,0.2-6.5c0-1.4,0.1-2.8,0.1-4.2c0-0.7-0.4-1.1-1-1.2
		c-1.9-0.6-3.9-0.9-5.9-0.6c-2.2,0.4-2.6,0.9-2.7,2.9c-0.2,3.1-0.3,6.2-0.5,9.3c0,0.5,0.2,1.2-0.6,1.4c-0.5,0.2-0.9-0.1-1.3-1.1
		c-0.1-0.3-0.3-0.7-0.5-1c0,0.5,0.1,0.9,0.1,1.4c0,0.4-0.3,0.7-0.7,0.8c-1.1,0.2-2.2,0.2-3.3,0c-0.5-0.1-0.7-1-0.4-1.4
		c0.4-0.6,1-0.8,1.6-0.9c0.7-0.1,1.5,0.3,2.1-0.5c-0.7,0-1.3-0.1-2,0c-1.2,0.1-2.2,0.4-2.3,1.9c0,0.7-0.5,1-1.1,1
		c-0.1,0-0.2,0-0.3,0c-5.9-0.1-4.8,1-4.9-4.6c-0.1-5.1,0-10.2,0-15.3c0-0.7,0-1.3,0-2s0.4-1,1.1-1
		C340.7,197.5,342.5,197.4,344.3,197.3z M350.5,193.8c0.1-0.6,0.2-1.1,0.9-1.1c0.5,0,0.8,0.5,0.7,1.1c0,0.7-0.2,1.1-0.8,1.1
		C350.8,194.9,350.4,194.5,350.5,193.8z M339.9,195.1c-2.1,0.6-2.1,0.6-2-1.3l0,0c0.4,0,0.6-0.1,1-0.1
		C339.2,194.2,339.5,194.6,339.9,195.1z M334.5,236.1c0,0,0,0.1-0.1,0.2c0.3-0.1,0.5-0.2,0.8-0.2c1.3-0.1,1.5,0.1,1.6,1.2
		c0.1,1,0.1,2,0.2,3c0,1.6,0.1,3.2,0.1,4.8c0,1-0.3,1.3-1.3,1.4c-1,0.2-1.3,0-1.3-0.9c-0.1-3-0.1-6.1-0.1-9.3
		C334.4,236.2,334.4,236.2,334.5,236.1z M333.8,257.5c-0.1,22.4-0.1,44.7-0.1,66.9c0,0.5,0,0.9,0,1.4c0,1.5,0,1.5-1.3,1.5
		c-1.6,0-3.2,0-4.8-0.1c-0.1-3.9-0.2-7.7-0.2-11.6c0-6.4,0.1-12.8,0.2-19.3c0-14.7,0-29.5,0-44.2c0-0.9,0.1-1.9,0.1-2.8
		c0-4.2,0-8.3,0-12.5c0.1-0.2,0.2-0.4,0.3-0.6h0.1c1.8,0.2,3.5,0.2,5.3,0c0.7,1.1,0.3,2.3,0.2,3.4c0,1.9,0.1,3.8,0.1,5.7
		c0,1.6,0,1.6-1.6,2.2c-0.3,0.1-0.8,0-1.1,0.6c0,0.6,0.1,1.5,0.1,2.3c-0.4,1.2,0.1,2,1.1,2.6c0.6,0.4,1.4,0.7,1.7,1.4
		C333.9,255.4,333.8,256.5,333.8,257.5z M334.5,327.1l0.1,0.1L334.5,327.1z M334.5,323.3c0-0.9-0.1-1.9-0.1-2.8
		c0-21.2,0-42.5,0-63.7c0-0.8,0-1.5-0.1-2.3c0.3,0.2,0.7,0.3,0.9,0.6c0.4,0.6,1.2,0.1,1.5,0.5c0.5,0.7,0.2,1.5,0.2,2.2
		c0,11.1,0.1,22.3,0.1,33.4c0,4.8-0.1,9.6-0.1,14.4c0,0.6-0.1,1.1-0.1,1.7c-0.7,0.5-0.7,1.3-0.7,2c0,2,0.2,4-0.2,5.9
		c-0.3,1.7-0.4,3.3-0.4,5c0,0.7,0,1.5-0.1,2.2C335.4,322.9,335,323.2,334.5,323.3z M337,253.3c-0.2-0.5-0.2-1.3-0.9-0.3
		c-0.1,0.1,0,0.3,0,0.4c0-0.1-0.1-0.2-0.1-0.3c-0.1-0.5,0-1-0.6-1.2c-0.1,0-0.4,0.6-0.6,0.8c-0.3,0.3-0.7,0.3-1,0.1
		c-0.4-0.2-0.8-0.4-1.2-0.7c0.7-0.7,1.4-0.7,2.2-0.9c4.3-1.3,8.8-2,13.2-2.6c1.2-0.2,2.4-0.1,3.7-0.1c0.5-0.3,1-0.3,1.6-0.2
		c1.9-0.6,3.9-0.4,5.8-0.4c2.7-0.1,5.4-0.2,8,0c0.4-0.1,0.8-0.1,1.1-0.2c0-0.2,0-0.4-0.1-0.5c-0.2-0.2-0.3-0.3-0.5-0.5
		c-3.4,0-6.7,0.1-10.1,0.1c-0.8,0.1-1.7,0.3-2.5,0.3c-7.1,0-13.9,1.5-20.7,3.2c-0.8,0.2-1.6,0.4-2.5,0.4c0-0.3,0-0.6-0.1-0.8
		c0-0.7,0.1-1.3,1-1.5c2.3-0.5,4.6-1.2,6.9-1.6c3.1-0.5,6.2-0.8,9.2-1.2c-0.1-0.3-0.3-0.3-0.5-0.4c0.2,0,0.4,0.1,0.5,0.4
		c1.5,0,3,0,4.5,0h0.1c0.3-0.1,0.7-0.3,1-0.4c3.6-0.2,7.2-0.2,10.8,0.1c0.3,0,0.5,0.2,0.8,0.3c2.1,0,4.1,0.1,6.1,0.5
		c0.9,0.2,1.9,0.1,2.8,0.2c0.4,0,0.7,0.1,1.1,0.1c0.7,0.7,1.8,0.3,2.6,0.7c0.1,0.1,0.2,0.3,0.3,0.4c0.1,0.4-0.3,0.5-0.5,0.5
		c-0.8-0.1-1.7-0.2-2.5-0.3c-1.1-0.2-2.2-0.4-3.3-0.2c-0.1-0.1-0.1,0.1,0,0.3c0.2,0.2,0.3,0.3,0.5,0.5c1.8,0,3.6,0.3,5.3,0.8
		c0.1,0,0.3,0.3,0.3,0.4c0,0.3-0.2,0.5-0.5,0.6c-0.1,0-0.2,0-0.3-0.1c-0.6-0.4-1-0.4-1.3,0.3c-0.2,0.5,0.1,1.3-0.7,1.3
		c-0.6,0-0.9-0.7-1-1.2s-0.3-0.8-0.9-0.8c-0.8,0.1-0.8,0.6-0.9,1.2c0,0.4,0,0.8-0.1,1.1s-0.4,0.6-0.6,0.4c-1-0.8-1.7,0.6-2.7,0.4
		c-0.4-0.5,0.1-1,0.2-1.4c0.1-0.9-0.1-1.6-0.4-1.4c-0.6,0.3-0.2,0.8-0.4,1.2c-0.1,0.2-0.1,0.3-0.2,0.5c0,0.1-0.2,0.2-0.2,0.1
		c-0.2,0-0.4-0.1-0.5-0.2c-0.1-0.7-0.2-1.5-0.3-2.3c-1,0.2-0.7,1.4-1.4,1.9c-0.8,0.5-0.3,1.6-0.5,2.4c-0.1,0.3-0.2,0.5-0.5,0.5
		c-0.1,0-0.3-0.2-0.4-0.4c-0.5-0.7-0.4-1.4-0.3-2.2c0-0.9,0.3-1.8-0.2-2.7c-0.8,0.5-0.4,1.3-0.6,1.9c-0.1,0.2-0.2,0.4-0.4,0.3
		c-0.2-0.1-0.3-0.2-0.4-0.3s-0.1-0.2-0.1-0.3c-0.3-0.5,0.2-1.6-0.8-1.5c-0.6,0.1-0.3,1-0.3,1.5c-0.1,1.2-0.1,2.5-0.1,3.7
		c0,0.3-0.3,0.5-0.6,0.5c-0.2,0-0.4-0.2-0.4-0.3c0.1-1.6-1.5-2.8-1.3-4.4c0-0.1-0.2-0.4-0.3-0.4c-0.2,0-0.4,0.1-0.4,0.3
		c-0.2,0.8-0.4,1.6-0.6,2.4c-1.8-0.3-0.7-2.2-1.7-2.9c-0.7,0.8-0.2,1.9-0.7,2.7c-0.5,0.9-0.5,1-1.6,0.4c-0.1,0-0.2-0.1-0.3-0.1
		c0,0.4-0.1,0.7-0.1,1.1c-0.1,0.9-0.7,0.6-1.2,0.7c0.5-0.9,0.9-1.7,1.3-2.5c-0.2-0.7,0.1-1.7-1-2c-0.4,0.8,0.4,2-0.9,2.6
		c-0.6-0.8-0.2-1.7-0.2-2.6c0-0.2-0.1-0.4-0.1-0.6c-0.4,0-0.8,0.1-0.9,0.6c-0.2,0.8-0.3,1.7,0,2.5c0.3,0.6,0.3,1.3,0.2,2
		c0,0.4,0,0.8-0.4,0.9c-0.5,0.1-0.6-0.3-0.7-0.7c-0.3-1.4-0.5-2.8-0.7-4.1c-0.5,0-0.7,0.3-0.7,0.7c-0.1,0.6-0.2,1.1-0.3,1.7
		c0,0.1-0.2,0.3-0.4,0.3s-0.4-0.2-0.4-0.3c-0.2-0.4-0.3-0.9-0.4-1.3c-0.1-0.4-0.3-0.8-0.7-0.6c-0.2,0.1-0.3,0.7-0.3,1
		c0,1,0.9,1.6,1.3,2.4c-0.8,0.9-1.3-1.1-2.2-0.1c-0.1,0.1-0.4-0.3-0.4-0.6c0-0.6-0.1-1.1-0.4-1.6c-0.4-0.6-0.5-1.3-1.4-0.5
		c-0.2,0.2-0.2-0.5-0.5-0.7c-0.1-0.1-0.3-0.2-0.5-0.2c-0.1,0-0.3,0.2-0.4,0.3c-0.2,0.8,0.1,1.5,0.4,2.2c0.2,0.4,0.5,0.5,0.9,0.5
		s0.8,0.2,0.6,0.7c-0.2,0.7-0.6,0.5-1,0.2c-1-0.7-0.9,0.5-1.3,0.8c-0.8-0.1-0.5-1.5-1.5-1.3c-0.4,0.9-1.1,0.4-1.7,0.4
		C337.5,254.1,337.1,253.8,337,253.3z M367.3,252.8c0,0,0,0.1-0.1,0.2C367.2,252.9,367.3,252.9,367.3,252.8z M363.8,253.1
		c0,0.3-0.2,0.5-0.5,0.5c-0.5,0-0.5-0.4-0.5-0.8c0-0.3,0.1-0.5,0.4-0.5C363.7,252.4,363.8,252.8,363.8,253.1z M359.4,252.9
		c0,0.3-0.1,0.7-0.2,0.8c-0.4,0.2-0.9,0.2-1.4,0.3c-0.3-0.1-0.7-0.1-1-0.2c-0.1,0-0.1-0.2-0.1-0.2c0-0.1,0.2-0.4,0.2-0.4
		c0.8,0.4,1.4,0.2,2-0.5C359.1,252.4,359.4,252.5,359.4,252.9z M355.4,254.3c-0.1,0.2,0,0.6-0.4,0.5c-0.3-0.1-0.4-0.3-0.5-0.6
		c0-0.2-0.1-0.4,0-0.5c0.1-0.2,0.1-0.6,0.5-0.5c0.4,0,0.4,0.3,0.4,0.6C355.5,253.9,355.4,254.1,355.4,254.3z M414.1,324.4
		c-0.1,3.4,0.4,3-3,3c-23.6,0-47.1,0-70.7,0c-0.8,0-1.7-0.1-2.5-0.1c0-24,0-47.9,0-71.8c1-0.3,1.8-0.4,2.4,0.4
		c0.5,0.7,1.1,0.7,1.6,0c0.3-0.4,0.9-0.7,1.2-0.4c1.1,0.9,2,0.9,3.2,0c0.5-0.4,1.8-0.4,2.5,0c1.2,0.7,2.1,0.4,3.3-0.2
		c0.7-0.4,1.7-0.2,2.3,0.6c0.4,0.6,1,0.5,1.4,0c0.9-1.1,2.1-0.7,3.2-0.9c0.8-0.1,1.2,0.4,1.6,0.9c0.4,0.4,0.9,0.4,1.2,0
		c0.6-0.7,1.2-1.4,2.1-1.1c1.3,0.5,2.3,0.2,3.4-0.5c0.2-0.1,0.6,0,0.8-0.1c2-0.6,4.3-0.3,6.2-1.3c0.8-0.4,1.6,0,2.1,1
		c0.5,1.1,0.9,2.3,1.4,3.4c1.4,3.1,3.4,5.9,5.8,8.3c2.6,2.6,5.6,3.7,9.3,2.9c2-0.4,3.8-1.1,5.5-2.2c2.5-1.6,4.6-3.7,6.3-6.1
		c2.6-3.7,4.5-7.7,5.9-11.9c0.9-2.8,1.9-5.5,2.5-8.4c0.1-0.5,0.2-1.1,1-1.2c0,5.3,0,10.6,0,15.9c0,20.5,0,41.1,0,61.6
		C414.1,318.9,414.2,321.7,414.1,324.4z M495,319.4c0.2,0.1,0.3,0.2,0.4,0.4C495.3,319.6,495.1,319.5,495,319.4z M496.4,320.3
		c0.6,0.2,1.2,0.3,1.8,0.3C497.6,320.6,497,320.5,496.4,320.3z M541.5,229.8c-0.1-0.1-0.1-0.2,0-0.3
		C541.5,229.7,541.5,229.7,541.5,229.8z M557.3,225c0.5,0,0.8-0.2,1.1-0.5C558.2,224.8,557.8,225,557.3,225z M559.3,197.1
		c0.1,0,0.3-0.1,0.4-0.3C559.6,197,559.5,197.1,559.3,197.1z M568.6,213.9c0.8-5,1.4-10,1.4-15C570,204,569.5,209,568.6,213.9z
		 M570.9,195.7c0.2-0.1,0.4-0.2,0.6-0.3C571.4,195.5,571.2,195.6,570.9,195.7z M602.9,198.8C602.9,198.8,603,198.8,602.9,198.8
		C602.9,198.9,602.9,198.8,602.9,198.8z M605.7,200.5c0.1,0.1,0.2,0.1,0.3,0.2C605.9,200.7,605.8,200.6,605.7,200.5z M609.2,188.7
		c0-0.2,0-0.3,0.1-0.4C609.3,188.4,609.2,188.5,609.2,188.7z"/>
	<path class="st1" d="M414,174.6h-79.3c0,0.2,0,0.4,0.1,0.6c-0.3,2.3-0.4,4.6-0.2,7h5.6c0.2-0.3,0.4-0.5,0.7-0.6v0.6h0.9
		c-0.8,0.3-0.8,0.8-0.4,2.9c0.2,1.2,0.3,2,0.4,2.6h5.2v-5.5h23.7c0.1-0.3,0.2-0.6,0.2-0.9c-6.5,0.1-13,0.1-19.5,0.1
		c-0.6,0-1.4,0.1-1.6-0.8c0.9-0.7,2-0.4,3-0.4c11.8,0,23.7,0,35.5,0c3.9,0,7.8,0,11.7,0c1,0,2.1-0.3,3,0.4c-0.2,0.1-0.4,0.4-0.6,0.5
		c-0.5,0.1-0.9,0.1-1.4,0.1c-7.6,0-15.3,0-22.9,0v0.1h-6.2v0.9h2c-0.7,0-1.4,0.1-2,0.3v4.8l0,0c0.1,0.1,0.2,0.3,0.3,0.4h7.4
		c0.3-1.7,0.5-3.4,0.7-5.1v-0.4H403c0.3-0.3,0.9-0.4,1.4-0.5v0.5h3.6c-0.1,0.2-0.4,0.2-0.6,0.2c-0.9,0.1-1.9,0.3-2.8,0.4
		c-0.1,0-0.1,0-0.2,0v5.2h5.4c0-0.3,0-0.6,0-0.9c0.1-1.4,0.4-2.8,0.6-4.2c0-0.2,0.2-0.4,0.4-0.4v-0.3h3.4c0-0.2,0-0.5,0-0.7
		C414.1,179.2,414.4,176.8,414,174.6z M377.6,182.3c-0.8,0-1.7-0.1-2.5-0.1h3C378,182.3,377.8,182.3,377.6,182.3z M407.9,181.6h-0.6
		l0,0C407.5,181.6,407.7,181.5,407.9,181.6z M346.2,181.5c-0.6,0.1-1.3,0-1.9,0.1h-3.4l0,0c2.1-0.9,4.3-1,6.6-0.6
		C347.1,181.7,346.6,181.5,346.2,181.5z"/>
	<path class="st1" d="M415.4,182.2v-7.6l0,0C415.4,177.1,415.4,179.7,415.4,182.2L415.4,182.2z"/>
	<path class="st1" d="M333.5,174.6L333.5,174.6v7.6h0.1C333.7,179.7,333.7,177.1,333.5,174.6z"/>
	<path class="st1" d="M285.5,362.1c28.4,0,56.9,0,85.3,0c1.1,0,2.3,0.4,3.1-0.6c-0.8-1.4-2.2-0.8-3.2-0.8
		c-17.2-0.1-34.5-0.1-51.7-0.1c-39,0-78.1,0-117.1-0.3c-1,0-2.1,0.1-3.1,0.1c-0.5,0-0.9,0.2-1.2,0.6c-0.1,0.1-0.1,0.3-0.1,0.5
		c-0.1,0.2,0,0.3,0.2,0.3c0.4,0,0.7,0.1,1.1,0.1c4.5,0,8.9,0.1,13.4,0.1C236.6,362,261.1,362,285.5,362.1L285.5,362.1z"/>
	<path class="st1" d="M447.7,234.1c0,0.6-0.1,1.1-0.1,1.7c0.1,1.1,0.2,2.3,0.2,3.4c0,2.6,0,5.3,0,7.9c0,0.5,0.1,0.9,0.2,1.4h0.2
		c0.1,0,0.2,0,0.2,0c0.1-0.7,0.2-1.3,0.2-2c0.1-3.2-0.2-6.4,0.1-9.6c0-1-0.1-2.1-0.1-3.1c0-7.2,0-14.4,0-21.5c0-0.8,0-1.7-0.1-2.5
		c0-0.5-0.5-0.5-0.9-0.5c-0.1,2.6-0.1,5.2-0.2,7.8c0.1,0.6,0.2,1.3,0.2,1.9C447.7,224,447.7,229.1,447.7,234.1z"/>
	<path class="st1" d="M445.3,245.3c0.3-3.2,0.6-6.4,0.9-9.6c0.4-5.7,0.5-11.3-0.2-17c-0.1-0.6,0-1.1,0-1.7c0-1-0.1-2.1-0.1-3.1
		c0-1.9-0.1-3.8-0.5-5.7c-0.1-0.4-0.1-0.8-0.5-0.9c-0.3,0.8-0.1,1.7-0.1,2.5c0.2,3.9,0.3,7.8,0.6,11.6c0.5,8.4-0.1,16.6-1.1,24.9
		c-0.1,0.7-0.2,1.4,0.2,2.4C445.3,247.5,445.2,246.3,445.3,245.3z"/>
	<path class="st1" d="M339.4,253.4c0.5-0.5,0.3-1,0.2-1.6c-0.2-0.7-1.2-0.4-1.5-1.1c0-0.1-0.5,0.1-0.6,0.4c-0.1,0.8,0.1,1.5,0.6,2.1
		C338.5,253.6,339,253.3,339.4,253.4z"/>
</g>
</svg>
