<?xml version="1.0" encoding="utf-8"?>
<!-- Generator: Adobe Illustrator 25.1.0, SVG Export Plug-In . SVG Version: 6.00 Build 0)  -->
<svg version="1.1" id="Capa_1" xmlns="http://www.w3.org/2000/svg" xmlns:xlink="http://www.w3.org/1999/xlink" x="0px" y="0px"
	 viewBox="0 0 613.8 613.8" style="enable-background:new 0 0 613.8 613.8;" xml:space="preserve">
<style type="text/css">
	.st0{fill:#1BBC9B;}
	.st1{fill:#FFFFFF;}
</style>
<circle class="st0" cx="307.5" cy="308.6" r="291.7"/>
<g id="z68p3U.tif_1_">
	<g>
		<path class="st1" d="M255.9,141.9c0,12.3,0,24,0,35.7c0,18-10.3,28.3-28.3,28.3c-11.5,0-22.9,0.1-34.5,0.1c-0.2,0-0.5,0.1-1.2,0.5
			c0,1.2,0,2.7,0,4.1c0,72.4,0,144.6,0,216.9c0,7.6,1.8,9.3,9.5,9.3c13.5,0,26.9,0,40.8,0c-0.4,1.1-0.5,1.9-0.7,2.7
			c-3,6.7-6.3,13.2-9.3,19.9c-0.8,1.9-1.9,2.8-4.1,2.8c-11.9-0.1-23.7,0.1-35.6-0.1c-14.4-0.1-25.6-11.3-25.6-25.9
			c-0.1-77.5-0.1-154.8,0-232.1c0-6.8,2.3-12.9,7.2-17.7c20.8-20.9,41.6-41.8,62.5-62.5c4.9-4.9,10.9-7.2,17.7-7.2
			c56.1-0.1,112.3-0.1,168.5,0c14.8,0,25.5,11.5,25.5,27.1c0,58.9,0,117.6,0,176.5c0,37.9,0,75.8,0,113.6c0,17.7-10.4,28.2-28,28.2
			c-10.8,0-21.6-0.1-32.4,0.1c-2.7,0-4.1-0.5-5.2-3.2c-3.2-7.3-6.7-14.4-10.3-22.2c7.9,0,15.2,0,22.5,0c6.6,0,13.1,0,19.7,0
			s8.6-2.1,8.6-8.5c0-53.9,0-107.8,0-161.7c0-38.6,0-77.5,0-116.1c0-6.4-2.1-8.5-8.6-8.5c-51.4,0-102.7,0-154.1,0
			C259,141.9,257.7,141.9,255.9,141.9z"/>
		<path class="st1" d="M334.8,407.2c-1,16-16.1,22.2-27.6,9.8c-4.7,4.7-10.1,8.4-17.4,5.8c-7.2-2.7-9.3-8.5-9.8-15.8
			c-7,0.4-13.6-0.4-17.4-7.3c-3.5-6.7-1.5-12.6,2.5-18c-13.4-14.1-12.1-21.9,5.1-29.7c-1.7-6.4-1.9-12.9,3.6-17.8
			c5.7-5,11.9-4.4,18.7-0.7c3-6.4,7-11.9,14.8-11.8c7.5,0.1,11.7,5,14.4,11.7c6.7-3.2,12.9-4.4,18.7,0.5c5.8,5,5.7,11.3,3.8,18.3
			c7,1.8,12.6,5.1,14,12.7c1.2,7.5-2.9,12.3-8.5,16.1C357.5,398.6,353.9,405.1,334.8,407.2z M307.4,392.7c11,0,20.2-9,20.2-20
			c0.1-10.9-9-20.2-20-20.2c-10.9-0.1-20.2,9.1-20.2,20C287.2,383.5,296.5,392.7,307.4,392.7z"/>
		<path class="st1" d="M307.4,231.9c27.7,0,55.5-0.1,83.2,0.1c1.9,0,5.5,0.8,5.8,1.9c0.7,2.8,0.5,5.9-0.2,9
			c-0.2,0.8-3.2,1.5-4.9,1.5c-48,0.1-95.9,0.1-144,0.1c-8.1,0-16.3-0.1-24.4,0.1c-3.6,0.1-5.2-1.3-5-5c0.1-0.7,0.1-1.6,0-2.4
			c-0.4-3.8,1.2-5.2,5.1-5.2c13.7,0.1,27.4,0.1,41.2,0.1C278.6,231.9,293.1,231.9,307.4,231.9z"/>
		<path class="st1" d="M307.4,257.5c27.7,0,55.5,0,83.2,0.1c1.9,0,5.5,0.8,5.8,1.9c0.7,2.8,0.5,5.9-0.2,9c-0.2,0.8-3.2,1.5-4.9,1.5
			c-45.8,0.1-91.8,0.1-137.5,0.1c-10.2,0-20.5-0.1-30.8,0.1c-3.6,0.1-5.2-1.3-5-5c0.1-0.7,0.1-1.6,0-2.4c-0.4-3.8,1.2-5.2,5.1-5.2
			c15.5,0.1,31,0.1,46.4,0.1C282.1,257.5,294.8,257.5,307.4,257.5z"/>
		<path class="st1" d="M307.4,295.6c-27.9,0-56,0-83.9-0.1c-1.7,0-4.7-1-5-1.9c-0.5-3-0.1-6.2,0.5-9.2c0.1-0.7,3-1.2,4.7-1.2
			c44.8-0.1,89.6-0.1,134.4-0.1c11,0,22.1,0,33.1,0c5.3,0,5.7,0.4,5.7,6.2c0,5.8-0.4,6.3-5.6,6.3
			C363.4,295.6,335.3,295.6,307.4,295.6z"/>
		<path class="st1" d="M348.3,473.6c-1.9,5.1-3.9,9.6-5.7,14.2c-1.2,3-2.2,5.9-3.5,8.9c-0.7,1.3-1.9,2.4-3,3.6
			c-0.7-1.3-1.8-2.5-2.2-3.9c-3-11.9-5.8-23.8-8.7-35.7c-1.8-7.3-3.5-14.7-5.5-22.3c12.5-0.8,21.6-6.4,27.2-18.1
			c3.9,8.4,7.5,16,11,23.7c6.2,13.1,12.4,26.2,18.5,39.5c0.5,1.2,0.4,2.7,0.5,4c-1.3-0.2-2.9,0-4-0.6
			C364.8,482.6,356.9,478.2,348.3,473.6z"/>
		<path class="st1" d="M266.4,473.7c-7.9,4.2-15.5,8.4-23.1,12.4c-1,0.5-1.8,1.2-2.8,1.5c-0.7,0.2-1.9,0.1-2.5-0.4
			c-0.5-0.4-0.2-1.6-0.1-2.4c0.1-0.5,0.4-1,0.6-1.5c9.3-19.9,18.8-39.9,28.2-60c0.4-0.7,0.8-1.6,1.5-2.8
			c5.6,11.4,14.6,17.1,27.1,17.8c-1.8,7.6-3.6,14.9-5.3,22.2c-2.9,12-5.8,24-8.9,35.9c-0.4,1.3-1.6,2.5-2.3,3.8
			c-1-1.2-2.2-2.2-2.8-3.5c-2.7-6.2-5-12.6-7.5-18.8C267.8,476.6,267.1,475.3,266.4,473.7z"/>
		<path class="st1" d="M333,193.2c-11,0-22.1,0-33.1,0c-4.7,0-5.2-0.5-5.1-6.7c0-5.2,0.5-5.8,5.2-5.8c22,0,43.9,0,65.9,0
			c5,0,5.3,0.5,5.3,6.6c0,5.5-0.5,5.9-5.5,5.9C354.9,193.2,343.9,193.2,333,193.2z"/>
	</g>
</g>
</svg>
